<svg width="72" height="72" viewBox="0 0 72 72" fill="none" xmlns="http://www.w3.org/2000/svg">
<path opacity="0.4" d="M38.929 9.34089L45.6085 22.7637C46.1006 23.7362 47.0398 24.4116 48.123 24.5616L63.1262 26.7467C64.0024 26.8698 64.7976 27.332 65.3347 28.0374C65.8658 28.7337 66.0938 29.6162 65.9648 30.4836C65.8598 31.204 65.5207 31.8703 65.0016 32.3806L54.1303 42.919C53.3351 43.6543 52.975 44.7439 53.1671 45.8094L55.8436 60.625C56.1287 62.4139 54.9435 64.1007 53.1671 64.4399C52.4349 64.557 51.6848 64.4339 51.0246 64.0977L37.6417 57.1252C36.6485 56.6239 35.4753 56.6239 34.4821 57.1252L21.0992 64.0977C19.4548 64.9712 17.4174 64.3769 16.5022 62.756C16.1631 62.1107 16.0431 61.3753 16.1541 60.658L18.8307 45.8394C19.0228 44.7769 18.6597 43.6813 17.8675 42.946L6.99617 32.4136C5.70289 31.165 5.66389 29.1089 6.90915 27.8153C6.93616 27.7883 6.96617 27.7583 6.99617 27.7282C7.51228 27.203 8.19043 26.8698 8.92259 26.7828L23.9258 24.5946C25.006 24.4416 25.9452 23.7722 26.4403 22.7937L32.8797 9.34089C33.4528 8.1883 34.6411 7.47094 35.9314 7.50095H36.3335C37.4527 7.63602 38.4279 8.32937 38.929 9.34089Z" fill="#5F2EEA"/>
<path d="M35.9762 56.7514C35.3951 56.7694 34.8289 56.9255 34.3197 57.2048L21.0023 64.1615C19.3728 64.9391 17.4228 64.3356 16.5092 62.7773C16.1707 62.1408 16.0479 61.4112 16.1618 60.6966L18.8216 45.9095C19.0014 44.8346 18.6419 43.7417 17.8601 42.9851L6.98393 32.4555C5.69293 31.1914 5.66896 29.1167 6.93301 27.8227C6.95098 27.8047 6.96596 27.7896 6.98393 27.7746C7.49914 27.2642 8.16411 26.9279 8.88001 26.8229L23.8958 24.613C24.9831 24.4749 25.9267 23.7964 26.4059 22.8116L32.9329 9.1894C33.5529 8.0905 34.7421 7.43596 36.0001 7.50502C35.9762 8.39675 35.9762 56.1449 35.9762 56.7514Z" fill="#5F2EEA"/>
</svg>
